<svg width="758" height="464" fill="none" xmlns="http://www.w3.org/2000/svg"><path d="M718.486 441.904H61.302c-1.68-3.863-3.36-7.886-4.871-11.909-6.55-16.414-12.764-33.634-15.787-50.692-5.039-27.518-2.016-54.232 19.65-75.313 18.306-17.863 44.002-34.76 46.69-61.152 3.695-35.243-9.405-71.13-1.008-106.051 6.046-25.104 26.2-45.22 52.736-53.266 39.804-12.07 80.951 5.471 120.084 12.07 29.055 4.988 59.286 4.827 87.669-2.576 9.741-2.574 18.81-6.115 27.544-10.299 4.366-2.092 8.565-4.345 12.932-6.437 33.926-22.369 72.554 7.725 109.503-1.287 26.871-5.955 33.589-33.151 58.782-46.669 15.115-9.012 33.59-7.564 48.537 1.287a116.408 116.408 0 0117.803 11.104c21.833 16.898 35.941 41.037 41.651 68.072 10.245 48.439-.336 99.131-8.733 147.248-5.375 31.058-8.23 62.922-3.359 94.142 2.519 15.609 7.054 31.058 14.275 45.381 6.718 13.035 17.131 23.012 25.697 34.438 1.679 2.253 3.191 4.506 4.702 6.759 1.008 1.77 2.016 3.379 2.687 5.15z" fill="#DCE8EF"/><path d="M38.46 441.904h657.185c1.68-3.863 3.359-7.886 4.871-11.909 6.55-16.414 12.764-33.634 15.787-50.692 5.038-27.518 2.015-54.232-19.65-75.313-18.307-17.863-44.003-34.76-46.69-61.152-3.695-35.243 9.405-71.13 1.008-106.051-6.046-25.104-26.2-45.22-52.736-53.266-39.804-12.07-80.952 5.471-120.084 12.07-29.055 4.988-59.286 4.827-87.669-2.576-9.741-2.574-18.811-6.115-27.544-10.299-4.367-2.092-8.565-4.345-12.932-6.437-33.926-22.369-72.554 7.725-109.503-1.287-26.872-5.955-33.59-33.151-58.782-46.669-15.115-9.012-33.59-7.564-48.537 1.287a116.36 116.36 0 00-17.803 11.104C93.548 57.612 79.44 81.751 73.73 108.786c-10.413 48.439.336 99.131 8.733 147.248 5.374 31.058 8.23 62.922 3.359 94.142-2.52 15.609-7.054 31.058-14.276 45.381-6.718 13.035-17.13 23.012-25.696 34.438-1.68 2.253-3.19 4.506-4.703 6.759-.84 1.77-1.847 3.379-2.687 5.15z" stroke="#F0F5F7" stroke-width="3" stroke-miterlimit="10"/><path d="M188.271 162.053l-5.542.322a35.484 35.484 0 00-4.871-15.932l4.703-2.575c-2.352-4.184-5.543-7.885-9.238-11.104l-3.694 3.862c-4.199-3.54-9.406-6.276-15.116-7.885l1.512-4.989c-4.031-1.126-8.062-1.609-12.093-1.609h-2.519l.336 5.311c-5.878.321-11.588 1.931-16.627 4.666l-2.687-4.505c-4.367 2.253-8.23 5.31-11.589 8.85l4.031 3.541c-3.695 4.023-6.718 8.851-8.229 14.483l-5.207-1.448v.161c-1.175 3.862-1.68 7.724-1.68 11.587v2.413l5.543-.321a35.471 35.471 0 004.871 15.931l-4.703 2.575c2.351 4.184 5.542 7.885 9.237 11.104l3.695-3.862c4.199 3.54 9.237 6.437 15.116 7.885l-1.512 4.989h.168c4.031 1.126 8.061 1.609 12.092 1.609h2.687l-.335-5.31c5.878-.322 11.588-1.932 16.459-4.667l2.687 4.506c4.366-2.253 8.229-5.311 11.588-8.851l-4.031-3.541c3.695-4.023 6.55-9.012 8.23-14.483l5.206 1.448c1.176-3.862 1.68-7.724 1.68-11.586-.168-.966-.168-1.771-.168-2.575zm-15.451 10.299c-3.695 12.552-15.62 20.76-28.72 20.76-2.687 0-5.374-.322-8.061-1.127-13.1-3.54-21.666-14.966-21.666-27.518 0-2.575.336-5.15 1.176-7.725 3.695-12.552 15.619-20.759 28.719-20.759 2.687 0 5.375.322 8.062 1.126 13.1 3.541 21.665 14.966 21.665 27.519 0 2.574-.504 5.149-1.175 7.724zm-57.439-72.417l-2.687.161c-.168-2.897-1.008-5.632-2.519-8.046l2.351-1.288c-1.176-2.092-2.855-4.023-4.703-5.632l-1.847 1.931c-2.183-1.77-4.703-3.218-7.726-4.023l.84-2.575c-2.016-.483-4.03-.804-6.046-.804H91.7l.168 2.574c-3.023.161-5.878.966-8.397 2.414l-1.344-2.253c-2.183 1.127-4.199 2.736-5.878 4.506l2.015 1.77c-1.847 2.092-3.359 4.506-4.198 7.403l-2.688-.805c-.504 1.931-.84 3.863-.84 5.794v1.287l2.688-.161c.168 2.897 1.008 5.633 2.519 8.046l-2.351 1.288c1.175 2.092 2.855 4.023 4.702 5.632l1.848-1.931c2.183 1.77 4.702 3.219 7.725 4.023l-.84 2.575c2.016.483 4.031.805 6.047.805h1.343l-.168-2.575c3.023-.161 5.879-.966 8.398-2.414l1.343 2.253c2.184-1.126 4.199-2.736 5.879-4.506l-2.016-1.77c1.848-2.092 3.359-4.506 4.199-7.403l2.687.644c.504-1.931.84-3.862.84-5.793v-1.127zm-11.924 4.184c-1.344 4.667-5.71 7.725-10.581 7.725-1.008 0-2.016-.161-3.023-.322-4.87-1.287-8.062-5.472-8.062-10.138 0-.966.168-1.931.336-2.897 1.344-4.667 5.71-7.725 10.58-7.725 1.009 0 2.016.161 3.024.322 4.87 1.288 8.061 5.472 8.061 10.139.168.965.001 1.931-.335 2.896z" fill="#C3D3DD"/><path d="M111.014 429.19h420.377l70.203-299.162H181.049L111.014 429.19z" fill="#03254E"/><path d="M169.965 177.502h420.376l11.253-47.474H181.049l-11.084 47.474zm314.064 78.532h55.76l12.428-53.589h-55.759l-12.429 53.589zm-76.248 0h55.927l12.428-53.589h-55.759l-12.596 53.589zm-76.081 0h55.759l12.596-53.589h-55.759L331.7 256.034zm-76.081 0h55.759l12.596-53.589h-55.927l-12.428 53.589zm-76.249 0h55.927l12.428-53.589h-55.759l-12.596 53.589zm287.529 72.738h55.759l12.596-53.427h-55.759l-12.596 53.427zm-76.081 0h55.759l12.596-53.427h-55.927l-12.428 53.427zm-76.081 0h55.759l12.428-53.427h-55.759l-12.428 53.427zm-76.249 0h55.927l12.428-53.427h-55.759l-12.596 53.427zm-76.081 0h55.759l12.596-53.427h-55.759l-12.596 53.427zm287.529 72.739h55.759l12.596-53.428h-55.927l-12.428 53.428zm-76.249 0h55.927l12.428-53.428h-55.759l-12.596 53.428zm-76.081 0h55.759l12.596-53.428h-55.759l-12.596 53.428zm-76.081 0h55.759l12.596-53.428h-55.927l-12.428 53.428zm-76.081 0h55.759l12.428-53.428h-55.759l-12.428 53.428z" fill="#03254E"/><path d="M552.385 162.053c2.519 0 5.038-1.931 5.71-4.506l2.183-9.495c.504-2.414-1.008-4.506-3.527-4.506s-5.038 1.931-5.71 4.506l-2.183 9.495c-.672 2.575 1.007 4.506 3.527 4.506zm-42.156 0c2.52 0 5.039-1.931 5.711-4.506l2.183-9.495c.504-2.414-1.008-4.506-3.527-4.506s-5.038 1.931-5.71 4.506l-2.184 9.495c-.671 2.575 1.008 4.506 3.527 4.506zm-42.155 0c2.519 0 5.039-1.931 5.71-4.506l2.184-9.495c.504-2.414-1.008-4.506-3.527-4.506s-5.039 1.931-5.71 4.506l-2.184 9.495c-.672 2.575 1.008 4.506 3.527 4.506zm-42.155 0c2.519 0 5.038-1.931 5.71-4.506l2.184-9.495c.503-2.414-1.008-4.506-3.527-4.506-2.52 0-5.039 1.931-5.711 4.506l-2.183 9.495c-.672 2.575 1.008 4.506 3.527 4.506zm-42.155 0c2.519 0 5.038-1.931 5.71-4.506l2.183-9.495c.504-2.414-1.007-4.506-3.527-4.506-2.519 0-5.038 1.931-5.71 4.506l-2.183 9.495c-.672 2.575 1.007 4.506 3.527 4.506zm-84.311 0c2.52 0 5.039-1.931 5.711-4.506l2.183-9.495c.504-2.414-1.008-4.506-3.527-4.506s-5.038 1.931-5.71 4.506l-2.184 9.495c-.671 2.575.84 4.506 3.527 4.506zm-42.155 0c2.519 0 5.039-1.931 5.71-4.506l2.184-9.495c.504-2.414-1.008-4.506-3.527-4.506s-5.039 1.931-5.71 4.506l-2.184 9.495c-.672 2.575.84 4.506 3.527 4.506zm-42.155 0c2.519 0 5.038-1.931 5.71-4.506l2.183-9.495c.504-2.414-1.007-4.506-3.526-4.506-2.52 0-5.039 1.931-5.711 4.506l-2.183 9.495c-.672 2.575.84 4.506 3.527 4.506zm126.465 0c2.52 0 5.039-1.931 5.711-4.506l2.183-9.495c.504-2.414-1.008-4.506-3.527-4.506s-5.038 1.931-5.71 4.506l-2.183 9.495c-.672 2.575 1.007 4.506 3.526 4.506z" fill="#03254E"/><path d="M217.83 150.305c-11.588 0-20.994-9.012-20.994-20.116s9.406-20.115 20.994-20.115c11.589 0 20.994 9.011 20.994 20.115s-9.405 20.116-20.994 20.116zm0-37.657c-10.077 0-18.306 7.886-18.306 17.541 0 9.656 8.229 17.541 18.306 17.541 10.077 0 18.307-7.885 18.307-17.541 0-9.655-8.23-17.541-18.307-17.541zm47.53 37.657c-11.589 0-20.994-9.012-20.994-20.116s9.405-20.115 20.994-20.115c11.588 0 20.993 9.011 20.993 20.115s-9.405 20.116-20.993 20.116zm0-37.657c-10.077 0-18.307 7.886-18.307 17.541 0 9.656 8.23 17.541 18.307 17.541 10.076 0 18.306-7.885 18.306-17.541 0-9.655-8.23-17.541-18.306-17.541zm47.697 37.657c-11.588 0-20.993-9.012-20.993-20.116s9.405-20.115 20.993-20.115c11.589 0 20.994 9.011 20.994 20.115s-9.405 20.116-20.994 20.116zm0-37.657c-10.077 0-18.306 7.886-18.306 17.541 0 9.656 8.229 17.541 18.306 17.541 10.077 0 18.307-7.885 18.307-17.541 0-9.655-8.23-17.541-18.307-17.541zm47.53 37.657c-11.589 0-20.994-9.012-20.994-20.116s9.405-20.115 20.994-20.115c11.588 0 20.993 9.011 20.993 20.115s-9.573 20.116-20.993 20.116zm0-37.657c-10.077 0-18.307 7.886-18.307 17.541 0 9.656 8.23 17.541 18.307 17.541 10.077 0 18.306-7.885 18.306-17.541 0-9.655-8.229-17.541-18.306-17.541zm47.361 37.657c-11.588 0-20.993-9.012-20.993-20.116s9.405-20.115 20.993-20.115c11.589 0 20.994 9.011 20.994 20.115s-9.405 20.116-20.994 20.116zm0-37.657c-10.076 0-18.306 7.886-18.306 17.541 0 9.656 8.23 17.541 18.306 17.541 10.077 0 18.307-7.885 18.307-17.541 0-9.655-8.23-17.541-18.307-17.541zm47.698 37.657c-11.588 0-20.994-9.012-20.994-20.116s9.406-20.115 20.994-20.115c11.589 0 20.994 9.011 20.994 20.115s-9.405 20.116-20.994 20.116zm0-37.657c-10.077 0-18.306 7.886-18.306 17.541 0 9.656 8.229 17.541 18.306 17.541 10.077 0 18.307-7.885 18.307-17.541.167-9.655-8.062-17.541-18.307-17.541zm47.026 37.657c-11.589 0-20.994-9.012-20.994-20.116s9.405-20.115 20.994-20.115c11.588 0 20.993 9.011 20.993 20.115s-9.405 20.116-20.993 20.116zm0-37.657c-10.077 0-18.307 7.886-18.307 17.541 0 9.656 8.23 17.541 18.307 17.541 10.077 0 18.306-7.885 18.306-17.541 0-9.655-8.229-17.541-18.306-17.541zm47.697 37.657c-11.588 0-20.993-9.012-20.993-20.116s9.405-20.115 20.993-20.115c11.589 0 20.994 9.011 20.994 20.115s-9.405 20.116-20.994 20.116zm0-37.657c-10.077 0-18.306 7.886-18.306 17.541 0 9.656 8.229 17.541 18.306 17.541 10.077 0 18.307-7.885 18.307-17.541.168-9.655-8.062-17.541-18.307-17.541z" fill="#F90"/><path d="M672.132 429.19H251.756l-70.035-299.162h420.377l70.034 299.162z" fill="url(#paint0_linear)"/><path d="M613.35 177.502H192.806l-11.085-47.474h420.377l11.252 47.474z" fill="#11477C"/><path d="M297.27 256.034h-52.568c-.672 0-1.344-.483-1.512-1.127l-11.756-50.37c-.168-.965.504-1.931 1.511-1.931h52.568c.672 0 1.344.483 1.512 1.127l11.756 50.37c.336.965-.503 1.931-1.511 1.931z" fill="#DCE8EF"/><path d="M373.351 256.034h-52.568c-.672 0-1.344-.483-1.512-1.127l-11.756-50.37c-.168-.965.504-1.931 1.511-1.931h52.568c.672 0 1.344.483 1.512 1.127l11.756 50.37c.336.965-.503 1.931-1.511 1.931z" stroke="#DCE8EF" stroke-width="1.108" stroke-miterlimit="10"/><path d="M449.432 256.034h-52.568c-.672 0-1.344-.483-1.512-1.127l-11.756-50.37c-.168-.965.504-1.931 1.511-1.931h52.568c.672 0 1.344.483 1.512 1.127l11.756 50.37c.336.965-.336 1.931-1.511 1.931z" fill="#F90"/><path d="M525.681 256.034h-52.568c-.672 0-1.344-.483-1.512-1.127l-11.756-50.37c-.168-.965.503-1.931 1.511-1.931h52.568c.672 0 1.344.483 1.512 1.127l11.756 50.37c.168.965-.504 1.931-1.511 1.931z" stroke="#DCE8EF" stroke-width="1.108" stroke-miterlimit="10"/><path d="M601.762 256.034h-52.568c-.672 0-1.344-.483-1.512-1.127l-11.756-50.37c-.168-.965.504-1.931 1.511-1.931h52.568c.672 0 1.344.483 1.512 1.127l11.756 50.37c.336.965-.504 1.931-1.511 1.931z" fill="#11477C"/><path d="M314.233 328.772h-52.568c-.672 0-1.344-.482-1.512-1.126l-11.756-50.37c-.168-.966.504-1.931 1.511-1.931h52.568c.672 0 1.344.483 1.512 1.126l11.756 50.37c.336.966-.503 1.931-1.511 1.931z" stroke="#DCE8EF" stroke-width="1.108" stroke-miterlimit="10"/><path d="M390.482 328.772h-52.568c-.672 0-1.344-.482-1.512-1.126l-11.756-50.37c-.168-.966.503-1.931 1.511-1.931h52.568c.672 0 1.344.483 1.512 1.126l11.756 50.37c.168.966-.504 1.931-1.511 1.931z" fill="url(#paint1_linear)"/><path d="M466.563 328.772h-52.568c-.672 0-1.344-.482-1.512-1.126l-11.756-50.37c-.168-.966.503-1.931 1.511-1.931h52.568c.672 0 1.344.483 1.512 1.126l11.756 50.37c.336.966-.504 1.931-1.511 1.931z" fill="#DCE8EF"/><path d="M542.644 328.772h-52.568c-.672 0-1.344-.482-1.512-1.126l-11.756-50.37c-.168-.966.503-1.931 1.511-1.931h52.568c.672 0 1.344.483 1.512 1.126l11.756 50.37c.336.966-.504 1.931-1.511 1.931z" fill="#F90"/><path d="M618.725 328.772h-52.569c-.671 0-1.343-.482-1.511-1.126l-11.756-50.37c-.168-.966.503-1.931 1.511-1.931h52.568c.672 0 1.344.483 1.512 1.126l11.756 50.37c.336.966-.336 1.931-1.511 1.931z" fill="url(#paint2_linear)"/><path d="M331.363 401.511h-52.568c-.671 0-1.343-.483-1.511-1.126l-11.757-50.37c-.168-.966.504-1.932 1.512-1.932h52.568c.672 0 1.344.483 1.512 1.127l11.756 50.37c.168 1.126-.504 1.931-1.512 1.931z" fill="#DCE8EF"/><path d="M407.444 401.511h-52.568c-.671 0-1.343-.483-1.511-1.126l-11.757-50.37c-.167-.966.504-1.932 1.512-1.932h52.568c.672 0 1.344.483 1.512 1.127l11.756 50.37c.336 1.126-.504 1.931-1.512 1.931z" stroke="#DCE8EF" stroke-width="1.108" stroke-miterlimit="10"/><path d="M483.526 401.511h-52.569c-.671 0-1.343-.483-1.511-1.126l-11.757-50.37c-.168-.966.504-1.932 1.512-1.932h52.568c.672 0 1.344.483 1.512 1.127l11.756 50.37c.336 1.126-.504 1.931-1.511 1.931z" fill="#11477C"/><path d="M559.774 401.511h-52.568c-.671 0-1.343-.483-1.511-1.126l-11.757-50.37c-.168-.966.504-1.932 1.512-1.932h52.568c.672 0 1.344.483 1.511 1.127l11.757 50.37c.168 1.126-.504 1.931-1.512 1.931z" fill="url(#paint3_linear)"/><path d="M635.855 401.511h-52.568c-.672 0-1.343-.483-1.511-1.126l-11.757-50.37c-.168-.966.504-1.932 1.512-1.932h52.568c.672 0 1.344.483 1.511 1.127l11.757 50.37c.336 1.126-.504 1.931-1.512 1.931z" stroke="#DCE8EF" stroke-width="1.108" stroke-miterlimit="10"/><path d="M230.762 162.053c-2.519 0-5.038-1.931-5.71-4.506l-1.848-7.886-.335-1.609c0-.322-.168-.644-.168-.965 0-2.092 1.511-3.541 3.694-3.541.84 0 1.68.161 2.52.644.336.161.839.483 1.175.644l1.008.965c.504.644 1.008 1.449 1.176 2.253l2.183 9.495c.504 2.575-1.176 4.506-3.695 4.506zm47.53 0c-2.519 0-5.039-1.931-5.711-4.506l-2.183-9.495c-.504-2.414 1.008-4.506 3.527-4.506s5.039 1.931 5.71 4.506l2.184 9.495c.672 2.575-1.008 4.506-3.527 4.506zm47.361 0c-2.519 0-5.038-1.931-5.71-4.506l-2.183-9.495c-.504-2.414 1.007-4.506 3.527-4.506 2.519 0 5.038 1.931 5.71 4.506l2.183 9.495c.672 2.575-.839 4.506-3.527 4.506zm47.53 0c-2.519 0-5.038-1.931-5.71-4.506l-2.184-9.495c-.503-2.414 1.008-4.506 3.527-4.506 2.52 0 5.039 1.931 5.711 4.506l2.183 9.495c.672 2.575-.84 4.506-3.527 4.506zm47.53 0c-2.52 0-5.039-1.931-5.711-4.506l-2.183-9.495c-.504-2.414 1.008-4.506 3.527-4.506s5.038 1.931 5.71 4.506l2.183 9.495c.672 2.575-1.007 4.506-3.526 4.506zm94.891 0c-2.519 0-5.039-1.931-5.71-4.506l-2.184-9.495c-.504-2.414 1.008-4.506 3.527-4.506 2.52 0 5.039 1.931 5.711 4.506l2.183 9.495c.672 2.575-.84 4.506-3.527 4.506zm47.529 0c-2.519 0-5.038-1.931-5.71-4.506l-2.183-9.495c-.504-2.414 1.007-4.506 3.527-4.506 2.519 0 5.038 1.931 5.71 4.506l2.183 9.495c.672 2.575-.839 4.506-3.527 4.506zm-94.891 0c-2.519 0-5.038-1.931-5.71-4.506l-2.183-9.495c-.504-2.414 1.007-4.506 3.527-4.506 2.519 0 5.038 1.931 5.71 4.506l2.183 9.495c.672 2.575-1.008 4.506-3.527 4.506z" fill="#03254E"/><path d="M217.83 110.234c-8.397 0-15.787 4.828-18.978 11.748l2.519.966c3.023-5.955 9.237-9.978 16.627-9.978 10.077 0 18.306 7.886 18.306 17.541 0 5.794-2.855 10.782-7.221 14.001-1.848 1.287-3.863 2.414-6.215 2.896 0 .322 0 .644.168.966l.336 1.609c2.855-.804 5.543-2.092 7.726-3.862 4.703-3.701 7.894-9.334 7.894-15.61-.168-11.265-9.573-20.277-21.162-20.277zm47.53 0c-8.398 0-15.788 4.828-18.979 11.748l2.52.966c3.023-5.955 9.237-9.978 16.627-9.978 10.076 0 18.306 7.886 18.306 17.541 0 5.794-2.855 10.782-7.222 14.001-1.847 1.287-3.863 2.414-6.214 2.896 0 .322 0 .644.168.966l.336 1.609c2.855-.804 5.542-2.092 7.726-3.862 4.702-3.701 7.893-9.334 7.893-15.61-.168-11.265-9.573-20.277-21.161-20.277zm47.697 0c-8.397 0-15.787 4.828-18.978 11.748l2.519.966c3.023-5.955 9.237-9.978 16.627-9.978 10.077 0 18.307 7.886 18.307 17.541 0 5.794-2.856 10.782-7.222 14.001-1.848 1.287-3.863 2.414-6.214 2.896 0 .322 0 .644.168.966l.336 1.609c2.855-.804 5.542-2.092 7.725-3.862 4.703-3.701 7.894-9.334 7.894-15.61-.168-11.265-9.573-20.277-21.162-20.277zm47.53 0c-8.398 0-15.788 4.828-18.979 11.748l2.52.966c3.023-5.955 9.237-9.978 16.627-9.978 10.077 0 18.306 7.886 18.306 17.541 0 5.794-2.855 10.782-7.222 14.001-1.847 1.287-3.863 2.414-6.214 2.896 0 .322 0 .644.168.966l.336 1.609c2.855-.804 5.542-2.092 7.726-3.862 4.702-3.701 7.893-9.334 7.893-15.61-.336-11.265-9.741-20.277-21.161-20.277zm47.361 0c-8.397 0-15.787 4.828-18.978 11.748l2.519.966c3.023-5.955 9.238-9.978 16.627-9.978 10.077 0 18.307 7.886 18.307 17.541 0 5.794-2.855 10.782-7.222 14.001-1.847 1.287-3.863 2.414-6.214 2.896 0 .322 0 .644.168.966l.336 1.609c2.855-.804 5.542-2.092 7.725-3.862 4.703-3.701 7.894-9.334 7.894-15.61-.168-11.265-9.573-20.277-21.162-20.277zm47.698 0c-8.398 0-15.787 4.828-18.978 11.748l2.519.966c3.023-5.955 9.237-9.978 16.627-9.978 10.077 0 18.306 7.886 18.306 17.541 0 5.794-2.855 10.782-7.221 14.001-1.848 1.287-3.863 2.414-6.215 2.896 0 .322 0 .644.168.966l.336 1.609c2.855-.804 5.543-2.092 7.726-3.862 4.703-3.701 7.894-9.334 7.894-15.61-.168-11.265-9.574-20.277-21.162-20.277zm47.026 0c-8.398 0-15.787 4.828-18.979 11.748l2.52.966c3.023-5.955 9.237-9.978 16.627-9.978 10.077 0 18.306 7.886 18.306 17.541 0 5.794-2.855 10.782-7.222 14.001-1.847 1.287-3.863 2.414-6.214 2.896 0 .322 0 .644.168.966l.336 1.609c2.855-.804 5.542-2.092 7.726-3.862 4.702-3.701 7.893-9.334 7.893-15.61-.168-11.265-9.573-20.277-21.161-20.277zm47.697 0c-8.397 0-15.787 4.828-18.978 11.748l2.519.966c3.023-5.955 9.238-9.978 16.627-9.978 10.077 0 18.307 7.886 18.307 17.541 0 5.794-2.855 10.782-7.222 14.001-1.847 1.287-3.863 2.414-6.214 2.896 0 .322 0 .644.168.966l.336 1.609c2.855-.804 5.542-2.092 7.725-3.862 4.703-3.701 7.894-9.334 7.894-15.61-.168-11.265-9.573-20.277-21.162-20.277z" fill="#F90"/><path d="M638.375 422.431l1.175 4.024c.168.643-.336 1.126-.839 1.287l-11.589 2.253c-1.007.161-1.847-.966-1.008-1.77 1.512-1.609 3.695-3.541 5.711-4.345.168 0-5.71-35.243-3.863-35.565 1.512-.322 10.413 34.116 10.413 34.116zm70.706-23.978l.336.322 2.687 2.414c.336.322.84 1.931.504 2.736-1.175 2.897-5.542 6.437-6.55 5.954-.839-.483-1.511-3.057-1.679-4.988-.168-1.288-.336-2.253-.336-2.253s-25.025-24.783-23.849-25.91c1.344-1.448 28.887 21.725 28.887 21.725zm-92.54-24.621c-4.87-.966-1.511-27.358.672-38.301 2.351-11.104 6.214-19.311 12.093-18.023 5.878 1.287 5.878 10.299 3.191 21.242-2.688 10.782-11.085 36.047-15.956 35.082z" fill="#F4D5B5"/><path d="M636.359 423.88c-4.198 1.287-16.963-33.795-19.482-41.841-2.687-8.046-4.702-16.575 0-18.024 4.703-1.448 8.062 6.759 10.749 14.805 2.519 7.886 12.932 43.772 8.733 45.06zm26.2-53.428c-4.534 1.931-18.474-20.759-23.68-30.898-5.207-10.138-7.222-18.989-1.848-21.403 5.542-2.414 11.253 4.828 15.955 15.127 4.703 10.139 13.94 35.082 9.573 37.174z" fill="#F4D5B5"/><path d="M708.242 401.511c-2.688 3.38-33.422-19.311-40.308-24.461-6.886-5.149-13.604-11.104-10.581-14.805 3.023-3.701 10.749 1.287 17.467 6.437 6.886 5.15 36.109 29.45 33.422 32.829z" fill="#F4D5B5"/><path d="M638.879 423.075l.839 3.862c0 .322-.168.805-.503.805l-12.932 2.575c-1.176.161-1.848-1.127-1.176-1.931 1.679-1.771 4.367-3.702 6.382-5.15.672.322 1.679 1.609 2.687 1.609.84 0 4.703-1.77 4.703-1.77zm70.538-24.3l2.687 2.414c.336.322.84 1.931.504 2.736-1.175 2.897-5.542 6.437-6.55 5.954-.839-.483-1.511-3.057-1.679-4.989 0-.804 2.351-2.735 3.023-2.896.504-.161 2.015-.644 2.015-.805.168-.483 0-2.414 0-2.414z" fill="#11477C"/><path d="M609.655 302.702c-3.359-.804-.168-20.437 1.848-28.484 2.015-8.207 5.206-14.322 9.405-13.196 4.199.966 3.863 7.886 1.512 15.932-2.352 8.046-9.238 26.714-12.765 25.748z" fill="#F4D5B5"/><path d="M651.307 325.393h-32.582l-1.344-50.37 2.351-14.162 15.788-4.666 9.069 1.609c5.206.965 8.901 5.31 8.733 10.46l-3.359 35.565 1.344 21.564z" fill="#F4D5B5"/><path d="M672.972 293.369c-2.855 2.092-17.131-12.231-22.841-18.829-5.71-6.598-8.901-12.713-5.374-15.288 3.359-2.575 8.901 1.77 14.275 8.529 5.375 6.759 16.795 23.496 13.94 25.588zm-34.093-43.933v10.138s-2.184 1.287-7.39 1.287c-2.855 0-3.527-1.287-3.527-1.287v-3.701l10.917-6.437z" fill="#F4D5B5"/><path d="M640.222 241.872v1.288c.336 5.954-3.695 12.391-9.741 13.356h-.336c-1.343.161-6.046.483-7.725-1.287-2.016-2.092-3.863-5.954-3.863-8.69 0-2.736.504-3.219.504-4.345 0-.805-.504-3.54-.504-4.667 0-5.31 3.695-10.621 10.413-10.621 9.909.161 11.42 8.529 11.252 14.966z" fill="#F4D5B5"/><path d="M637.199 242.033c.84-.161 2.687-.805 2.351 1.931-.671 4.667-3.358 4.345-3.358 4.345.167-.643.335-1.609.671-2.575-.839-.482.168-.965.168-1.609v-.322c.168-.643.168-1.287.168-1.77z" fill="#F4D5B5"/><path d="M637.031 243.642s.84-.804 1.512-.482c.671.321.168 1.77-.336 2.735-.504.805-1.176.966-1.176.644-.168-.322 1.008-.805.672-1.126-.336-.483-.84-.483-.84-.805.168-.161.168-.966.168-.966zm-10.413 13.035c3.023.161 7.054-2.735 8.23-4.023 1.175-1.287 1.679-4.667 1.679-4.667s.84.161 1.512-.804c0 0 0 1.448-.672 1.931-.672.483-1.008.644-1.176.965-.168.322-.839 4.989-3.359 6.116-2.351 1.609-6.214.482-6.214.482z" fill="#D3BC9A"/><path d="M612.007 271c-2.016 6.115-3.023 12.874-3.023 12.874s1.343 2.092 7.221 3.218v-14.161c.336-6.759 3.024-12.23 3.024-12.23-2.856.965-5.207 4.184-7.222 10.299z" fill="#F90"/><path d="M638.879 249.758c.503.321 1.175.321 1.511.161.504-.322.672-1.449-.168-2.093.168 0 1.344-.16 2.016-1.287.503-.965.168-2.414-.84-3.218 1.343-.644 2.183-1.61 2.015-3.219 0-1.126-.504-2.414-.504-3.54 0-.805.168-1.771.336-2.575.168-.805.168-1.77-.336-2.575-.336-.805-1.343-1.287-2.183-1.126v-2.414c0-.483-.168-1.127-.672-1.288-.336-.161-.504-.161-.84 0-.839 0-1.847.161-2.687.161 0-.804 0-1.609-.672-2.253-.839-.804-2.183-.644-3.359-.483-1.175.161-2.351.483-3.526.644-.168-.805-.672-1.287-1.344-1.609-.672-.322-1.512-.322-2.351-.322-2.016.161-4.199 1.126-4.871 2.897-1.679-1.449-4.702-1.288-6.214.482-.84.805-1.176 2.092-1.176 3.219 0 .966.168 1.931.672 2.736 1.176 1.931 3.695 2.575 6.046 2.575 2.352-.161 4.535-.805 6.886-1.127 1.68-.161 3.527.161 4.199 1.609.504 1.127.336 2.414 1.176 3.38.503.483 1.007.644 1.679.965 1.176.644 1.68 1.771 1.848 3.058 0 .322.167 2.897.671 2.897s1.512-2.897 1.512-2.897 1.511-.483 2.015.483c.504.965 0 2.735-.504 3.701-.503.966-.839 1.287-.839 1.287l.504 1.771z" fill="#11477C"/><path d="M569.348 293.047c.503-2.897 23.345.322 29.895 1.448 6.55 1.127 13.1 2.736 12.428 6.115-.672 3.38-7.558 2.575-13.94 1.449-6.382-1.127-28.887-5.955-28.383-9.012z" fill="#F4D5B5"/><path d="M573.043 289.024c-1.512.643-2.856 1.126-4.199 1.609.168 0 .168.161.168.161-.336.322-8.398-1.77-8.566-.483-.336 1.287 3.359 4.667 6.886 5.472 2.184.482 8.734 1.448 8.902-2.093.167-2.253-.84-3.218-2.688-4.505-.168 0-.335-.161-.503-.161z" fill="#F4D5B5"/><path d="M565.821 288.058c-.336 1.126 2.351 2.253 3.023 2.736 1.343-.483 2.855-1.127 4.199-1.609-2.016-1.288-6.718-2.414-7.222-1.127z" fill="#F4D5B5"/><path d="M617.717 331.347c-4.703 13.357-5.542 32.185-5.038 40.393.503 8.207 17.13 51.335 17.13 51.335s6.718 1.287 9.909-2.736c0 0-13.268-50.048-12.428-54.071.672-4.023 10.245-36.852 10.245-36.852l-19.818 1.931z" fill="#11477C"/><path d="M632.664 329.577s9.406 24.622 20.658 37.979c11.421 13.195 48.537 35.081 48.537 35.081s6.047-.965 6.215-6.437c0 0-39.972-33.955-41.652-36.047-1.679-2.092-13.772-28.806-13.772-28.806l-19.986-1.77z" fill="#11477C"/><path d="M628.13 258.287l-8.734 2.253s-2.687 5.471-3.023 12.23c-.168 1.931-.168 7.403 0 14.162.168 17.541.84 44.254.84 44.254h35.773s-1.511-19.955-1.847-26.07c-.336-6.598 1.343-13.196 1.679-19.794a99.59 99.59 0 000-14.161c-.168-3.862 0-8.851-3.191-11.748-1.175-.965-3.023-1.931-4.702-2.092-.336 0-4.031-.644-4.031-.483 0 0-1.512 4.667-8.398 4.667-7.054.322-4.366-3.218-4.366-3.218z" fill="#F90"/><path d="M543.844 259.412l-8.663 17.436 145.576 66.4 8.662-17.437-145.575-66.399z" fill="#11477C"/><path d="M521.314 259.896l13.94 16.897 6.718-2.253-2.351-6.437 6.718-2.253-2.52-6.437-22.505.483z" fill="#F4D5B5"/><path d="M521.314 259.895l3.023 3.54 1.848-3.701-4.871.161z" fill="#373F49"/><path d="M689.431 325.715l-8.733 17.38 9.069 4.184c5.039 2.253 11.085.322 13.436-4.506 2.351-4.828.336-10.621-4.702-12.874l-9.07-4.184z" fill="#11477C"/><path d="M689.471 325.806l-8.662 17.436 4.549 2.075 8.662-17.436-4.549-2.075zm-9.125-4.195l-8.662 17.436 4.549 2.075 8.663-17.436-4.55-2.075z" fill="#DCE8EF"/><path d="M703.203 342.773l-181.889-83.038 11.253-.161 11.252-.161 136.375 62.278 4.535 2.092 4.534 2.092 4.535 2.092 4.535 2.092c5.206 2.092 7.389 7.886 4.87 12.714z" fill="#E6E7E8"/><path d="M645.261 258.126c-3.863 1.77-4.535 5.954-1.008 10.943 4.031 5.632 13.604 15.288 13.604 15.288.336-.161.672-.322.839-.483 7.222-4.345 7.39-7.242 7.39-7.242-5.878-8.368-13.604-17.058-17.466-18.023-.84-.483-2.016-.483-3.359-.483z" fill="#F90"/><path d="M664.407 329.577c-3.191-.483-.504-22.691.504-28.806 1.007-6.276 2.519-12.713 6.046-12.23 3.527.483 2.855 7.081 1.847 13.357-1.007 6.276-5.374 28.162-8.397 27.679z" fill="#F4D5B5"/><path d="M665.079 323.784c3.694.322 2.519 6.598 2.015 8.69-.84 3.379-5.207 6.276-6.55 5.954-1.344-.322 1.176-7.885.84-8.207-.336-.322-1.176 3.862-2.52 3.54-1.343-.483.168-5.471 1.512-7.242 1.344-1.931 2.351-2.896 4.703-2.735z" fill="#F4D5B5"/><path d="M153.338 250.24h-17.635v19.794h17.635V250.24z" fill="#0D426D"/><path d="M161.399 254.585h-34.933c-6.214 0-11.421-4.827-11.421-10.943 0-5.954 5.039-10.943 11.421-10.943h34.933c6.214 0 11.421 4.828 11.421 10.943 0 6.116-5.207 10.943-11.421 10.943z" fill="#11477C"/><path d="M78.941 271.877l-9.752 8.381 12.672 13.537 9.752-8.382-12.672-13.536z" fill="#0D426D"/><path d="M82.799 272.126l-13.94 11.909c-2.519 2.092-6.214 1.931-8.565-.483-2.184-2.414-2.016-5.954.504-8.207l13.94-11.909c2.519-2.092 6.214-1.931 8.565.483 2.183 2.414 2.015 5.954-.504 8.207z" fill="#11477C"/><path d="M144.604 431.604c48.14 0 87.166-37.393 87.166-83.52 0-46.128-39.026-83.521-87.166-83.521-48.14 0-87.165 37.393-87.165 83.521 0 46.127 39.025 83.52 87.165 83.52z" fill="#3488C1"/><path d="M204.359 405.615c33.08-31.781 33.08-83.307 0-115.087-33.08-31.781-86.713-31.781-119.792 0-33.08 31.78-33.08 83.306 0 115.087 33.079 31.78 86.712 31.78 119.792 0z" fill="#2672B2"/><path d="M215.792 364.623c9.557-37.653-14.553-75.601-53.85-84.757-39.297-9.157-78.9 13.944-88.457 51.598-9.556 37.654 14.553 75.601 53.851 84.758 39.297 9.157 78.9-13.945 88.456-51.599z" fill="#DCE8EF"/><path d="M212.698 363.938c9.136-36.013-13.926-72.303-51.511-81.057-37.584-8.754-75.459 13.343-84.595 49.356-9.136 36.013 13.926 72.304 51.511 81.058 37.584 8.754 75.459-13.344 84.595-49.357z" fill="#F9FBFC"/><path d="M144.604 348.084l15.452-42.324" stroke="#03254E" stroke-width="3.323" stroke-miterlimit="10" stroke-linecap="round"/><path d="M144.604 292.564c-.839 0-1.511-.644-1.511-1.448V285c0-.804.672-1.448 1.511-1.448.84 0 1.512.644 1.512 1.448v6.116c0 .804-.672 1.448-1.512 1.448zM85.15 349.532h-6.382c-.84 0-1.511-.644-1.511-1.449 0-.804.671-1.448 1.511-1.448h6.382c.84 0 1.512.644 1.512 1.448 0 .805-.672 1.449-1.512 1.449zm59.454 63.083c-.839 0-1.511-.644-1.511-1.448v-6.116c0-.804.672-1.448 1.511-1.448.84 0 1.512.644 1.512 1.448v6.116c0 .804-.672 1.448-1.512 1.448zm65.836-63.083h-6.382c-.84 0-1.511-.644-1.511-1.449 0-.804.671-1.448 1.511-1.448h6.382c.84 0 1.512.644 1.512 1.448 0 .805-.672 1.449-1.512 1.449zm-59.79-1.448c0 3.218-2.687 5.793-6.046 5.793-3.359 0-6.046-2.575-6.046-5.793 0-3.219 2.687-5.794 6.046-5.794 3.359 0 6.046 2.575 6.046 5.794z" fill="#03254E"/><path d="M295.087 424.041c.504-4.024 2.351-9.817 3.359-14.162 1.007-4.506 9.573-4.184 7.221 2.092-2.351 6.276-3.191 10.943-3.191 10.943s.168 2.736-3.191 2.897c-3.359.161-4.366-1.127-4.198-1.77zm-.672-52.301c4.87-.322 5.374-26.875 4.534-38.14-.839-11.265-3.527-19.955-9.573-19.472-6.046.483-7.221 9.495-6.046 20.76 1.176 11.264 6.046 37.334 11.085 36.852z" fill="#F4D5B5"/><path d="M270.734 420.661c4.031 1.609 18.978-32.668 22.337-40.392 3.191-7.725 6.046-16.254 1.512-18.024-4.535-1.77-8.566 6.115-11.925 14.001-3.191 7.724-15.955 42.806-11.924 44.415z" fill="#F4D5B5"/><path d="M268.215 424.845c2.687 1.771 8.229 2.897 8.733 1.931.504-.804-.336-3.379-1.176-5.149-.168-.483-.504-.966-.671-1.288-.168-.482-.336-.643-.336-.643s8.901-33.473 7.221-33.956c-1.847-.483-13.603 32.829-13.603 32.829s0 .161-.168.483l-.168.483-.84 2.896c0 .161-.84 1.127 1.008 2.414z" fill="#F4D5B5"/><path d="M268.215 424.845c2.687 1.77 8.229 2.897 8.733 1.931.504-.804-.336-3.379-1.176-5.149-.167-.483-.503-.966-.671-1.288-.168.322-.504.805-.672 1.288-.336.804-.84.804-2.519-.322-1.176-.644-3.023-1.448-4.031-1.931 0 0-1.008 2.092-1.344 2.896.168.161-.168 1.288 1.68 2.575z" fill="#11477C"/><path d="M270.734 299.484c3.359 1.287 13.1-16.254 16.627-24.139 3.527-7.725 4.871-14.484.84-16.093-4.031-1.609-8.062 4.023-11.253 11.909-3.359 7.885-9.573 27.035-6.214 28.323z" fill="#F4D5B5"/><path d="M289.208 331.991c2.855-1.288-6.046-21.886-8.733-27.679-2.687-5.794-6.046-11.587-9.237-10.139-3.191 1.449-.84 7.725 2.015 13.357 2.687 5.793 13.1 25.748 15.955 24.461z" fill="#F4D5B5"/><path d="M286.857 326.68c-3.527 1.288-.504 6.92.672 8.851 1.847 3.058 6.718 4.667 8.061 4.023 1.344-.643-3.359-7.402-3.191-7.724.168-.322 2.184 3.379 3.359 2.736 1.176-.805-1.679-5.311-3.527-6.598-1.847-1.449-3.191-2.092-5.374-1.288zm31.071 46.508c4.87-.966 1.511-27.357-.672-38.3-2.351-11.104-6.214-19.312-12.092-18.185-5.879 1.287-5.879 10.299-3.192 21.242 2.688 10.943 11.085 36.209 15.956 35.243z" fill="#F4D5B5"/><path d="M298.11 423.397c4.198 1.287 16.963-33.955 19.65-41.841 2.687-8.046 4.702-16.575 0-18.024-4.703-1.448-8.062 6.759-10.749 14.806-2.687 7.885-13.1 43.772-8.901 45.059z" fill="#F4D5B5"/><path d="M295.087 424.041v4.023c0 .322.336.644.671.644h13.268c1.176 0 1.68-1.449.672-2.092-1.847-1.449-5.038-2.736-7.222-3.863-.503.483-1.343 1.931-2.351 2.092-.84.161-5.038-.804-5.038-.804z" fill="#11477C"/><path d="M358.907 270.678c-.504 1.609-1.511 3.54-2.855 4.667-.672.483-1.679 1.448-2.855 2.253-2.015 1.287-4.535 2.253-5.878.483-1.344-1.771-1.008-3.219-.168-5.15 0-.161.168-.161.168-.322 1.175-2.092 4.702-5.31 5.71-4.506.84.805-.84 3.058-1.176 3.862v.161s.168-.161.504-.322c1.512-1.126 5.878-5.31 6.718-4.505.336.482.336 1.931-.168 3.379z" fill="#F4D5B5"/><path d="M406.101 277.115l-47.865 6.759c-1.008.161-1.848-.322-2.184-1.288l-17.802-44.415c-.504-1.127.336-2.414 1.511-2.575l47.866-6.759c1.007-.161 1.847.322 2.183 1.288l17.803 44.415c.503 1.127-.168 2.253-1.512 2.575z" fill="#11477C"/><path d="M352.693 274.218c-2.015-2.253-19.986 11.748-24.856 15.771-4.871 4.184-9.741 8.851-7.39 11.426 2.351 2.575 7.894-1.448 12.764-5.633 4.703-4.184 21.498-19.311 19.482-21.564zm-69.531 50.531l30.735-1.287 1.344-50.37-2.184-12.713-14.276-4.989-9.069 1.609c-5.206.966-8.901 5.472-8.733 10.46l3.359 35.726-1.176 21.564z" fill="#F4D5B5"/><path d="M295.422 249.275v10.138s2.184 1.287 7.39 1.287c2.855 0 3.527-1.287 3.527-1.287v-3.701l-10.917-6.437z" fill="#F4D5B5"/><path d="M294.247 241.711v1.288c-.336 5.954 3.695 12.391 9.909 13.357h.336c1.343.16 6.046.482 7.725-1.288 2.016-2.092 3.863-5.954 3.863-8.69 0-2.736-.504-3.379-.504-4.345 0-.805.504-3.54.504-4.667 0-5.31-3.695-10.621-10.413-10.621-10.244 0-11.756 8.529-11.42 14.966z" fill="#F4D5B5"/><path d="M314.065 260.057c2.183 1.931 3.863 5.149 4.199 12.069.168 1.931 1.511 7.081-1.008 13.518-4.703 11.265-1.847 25.105-1.847 25.105l-31.911 1.126s-.672-20.438-1.679-27.036c-3.359-19.633 0-26.07 5.71-27.518 8.565-2.414 24.353.966 26.536 2.736z" fill="#F90"/><path d="M321.958 302.059c3.359-.805.168-20.438-1.847-28.645-2.015-8.208-5.206-14.323-9.405-13.196-4.199.965-3.863 7.885-1.512 15.931 2.352 8.208 9.237 26.714 12.764 25.91z" fill="#F4D5B5"/><path d="M317.76 234.148a5.099 5.099 0 010 2.253c-.168.965-.336 2.092-1.008 2.735-.504.644-1.176.966-1.679 1.61-1.008 1.448-.168 3.54.167 5.31 0 .322.168.644 0 .966-.167 1.287-1.847 1.931-2.351 3.218-.672 2.092 2.184 3.863 1.848 5.955-.168 1.287-1.68 2.092-2.016 3.218-.672 1.77 1.176 3.862.336 5.633-.504.965-1.679 1.448-2.855 1.931-5.71 1.77-11.421 1.609-17.299.965-3.191-.322-7.054-.965-9.237-3.54-1.008-1.127-1.344-2.897-1.008-4.345.168-1.448 1.008-2.897 2.016-4.023.839-.966 1.679-1.77 2.015-2.897.504-2.253-1.679-4.667-.504-6.598.84-1.287 2.855-1.77 3.191-3.218.168-.644-.168-1.288-.336-1.771-.335-1.448.168-3.057 1.344-4.023.672-.644 1.512-1.126 2.015-1.931.336-.805.168-1.77 0-2.575-.168-1.609 1.008-3.057 1.848-4.184 1.008-1.448 2.351-2.575 4.199-2.897 1.175-.16 2.519 0 3.694.322h.504c.168 0 .336-.161.504-.161 2.855-1.126 7.222-.482 10.077.966 2.351.966 4.199 4.506 4.535 7.081zm-34.598 69.681c.336 6.437-4.702 14.805-5.542 21.242-1.512 12.713 7.726 36.691 7.726 38.301 0 1.609-8.566 22.368-11.925 34.92 0 0 1.848 2.575 10.917 4.185 0 0 13.94-28.967 15.115-35.404 1.344-6.598-.336-61.957-.336-61.957l-15.955-1.287z" fill="#11477C"/><path d="M297.27 304.955h17.467s4.03 15.127 6.55 35.565c2.519 20.438 1.679 26.553 1.343 29.771-.504 3.219-12.26 34.117-12.26 34.117s-6.046.804-12.092-2.736c0 0 4.03-17.541 7.389-25.587 3.359-8.047 3.695-9.978 3.695-9.978s-9.741-19.955-12.26-34.277c-2.519-14.323.168-26.875.168-26.875z" fill="#11477C"/><path d="M358.907 270.678c-.504 1.609-1.511 3.54-2.855 4.667-.672.483-1.679 1.448-2.855 2.253-.84-1.77-2.015-4.506-2.015-4.506l.839-1.127s.168-.161.504-.322c1.512-1.126 5.878-5.31 6.718-4.505.168.643.168 2.092-.336 3.54z" fill="#F4D5B5"/><path d="M439.859 379.786l13.436 4.828 9.741-21.564m117.9-147.731l-21.498 26.392m27.544 0l-33.59-26.392" stroke="#F9FBFC" stroke-width="2.216" stroke-miterlimit="10" stroke-linecap="round"/><path d="M757.619 435.466c0 1.771-.672 3.38-2.016 4.506-1.175 1.127-2.855 1.931-4.702 1.931H6.718c-3.695 0-6.718-2.896-6.718-6.437 0-1.77.672-3.379 2.015-4.505 1.176-1.127 2.856-1.932 4.703-1.932h744.351c3.527.161 6.55 3.058 6.55 6.437z" fill="#CBE8EF"/><path d="M46.186 304.151c.168 1.609.504 3.057 1.008 4.666.504 1.449 1.175 2.897 1.847 4.345.504.805 1.512 1.932 1.512 3.058 1.007.161 2.183 0 3.19.161-1.175.644-1.847.805-1.175 2.092 1.176 2.414 2.687 4.667 4.03 7.081.505 1.126 1.345 2.253 1.512 3.379.168.966 0 2.253.84 3.058.84.965 4.535-.483 5.543-.483-.84.966-2.52 2.414-3.863 2.575.671.322 1.847.483 2.687.483-1.008.321-2.016.643-2.855.965.168.805.168 1.77.336 2.575l.503 3.38c.336 1.609.336 5.149 1.68 6.115 1.344.965 5.71 1.287 7.222.482-1.344 1.449-5.039 2.253-6.886 1.771.168 2.896 1.511 6.598 3.023 9.172 1.68 2.897 4.703 4.185 7.39 3.541 1.343-.322 2.687-1.127 3.695-2.575 0-.644-.168-1.126-.168-1.77-.336-2.897-.672-5.794-1.512-8.69-1.511-5.633-3.527-11.104-6.214-16.415-5.374-10.46-13.94-18.667-21.162-27.84 0 0 0-.161.168 0 4.031 4.989 8.734 9.495 12.932 14.483 3.695 4.345 7.054 9.012 9.574 14.162 2.687 5.311 4.702 10.943 6.046 16.575.84 3.541 2.015 7.403 2.183 11.104 2.183 1.449 5.374 1.288 7.558.161 3.023-1.448 4.03-4.506 3.863-7.563 0-1.449-.336-2.897-.504-4.184-.168-1.127-1.008-2.575-.84-3.702-1.176-.161-2.351 0-3.527 0 .672-.804 1.847-1.448 2.855-1.931-.504-.965-.84-3.057-1.511-3.701-.672-.644-2.855-.161-3.863 0 .672-.805 1.511-1.448 2.351-1.931 0-2.575-1.847-5.794-3.023-8.047-1.008-1.77-2.183-3.218-3.023-4.988-1.344.643-2.687 1.126-4.03 1.931-1.512.804-3.192 1.931-5.04 2.253 1.008-.805 1.848-1.77 3.024-2.575 1.511-1.127 2.519-2.897 4.198-4.023-.671-.644-.84-1.449-1.343-2.092-.504-.644-4.87-6.437-5.542-5.955-1.344.966-2.856 1.771-4.2 2.897.505-.965 1.008-2.253 1.512-3.057-.671.643-2.015 1.126-2.687 1.448.336-.805 1.344-3.219 2.352-3.38-1.512-.482-2.688-1.448-3.863-2.413a12.017 12.017 0 00-3.695-2.092c-.84-.483-2.016-.644-2.687-1.127-.336.644-2.016.966-2.688 1.448 0-.804.504-1.77.84-2.574-3.359-1.771-7.054-2.736-9.405-5.955.336-.161-.168 2.897-.168 3.702z" fill="#4C76D7"/><path d="M48.705 305.277c7.222 9.334 15.788 17.38 21.162 27.84 2.687 5.311 4.87 10.782 6.214 16.415a78.386 78.386 0 011.512 8.69c0 .643.167 1.126.167 1.77.168-.161.168-.322.336-.322a3.548 3.548 0 001.68 1.77c-.336-3.701-1.344-7.563-2.183-11.104-1.512-5.632-3.36-11.264-6.047-16.575-2.519-5.15-5.878-9.817-9.573-14.162-4.366-4.827-9.069-9.333-13.268-14.322.168-.161 0-.161 0 0z" fill="#11477C"/><path d="M77.424 392.499c-.167.966 2.856 1.127 3.024.161.504-1.931-.504-29.289-.672-31.381-.672-.482-1.344-.965-1.68-1.77 0 .161-.168.322-.336.322.336 2.575 0 30.415-.336 32.668z" fill="#11477C"/><path d="M125.122 327.002c-.336 1.127-.84 2.253-1.343 3.38-.504 1.126-1.176 2.092-2.016 3.057-.504.644-1.343 1.288-1.511 2.092-.84 0-1.68-.161-2.52-.322.84.644 1.176.805.672 1.61-1.175 1.77-2.687 3.218-3.863 4.827-.504.805-1.175 1.61-1.679 2.414-.336.644-.336 1.77-1.008 2.253-.84.644-3.359-.804-4.199-.965.504.804 1.512 2.092 2.52 2.253-.504.161-1.344.161-2.016 0 .672.482 1.344.643 2.016 1.126-.336.644-.336 1.288-.672 1.931-.336.805-.504 1.61-.84 2.414-.504 1.127-.84 3.862-2.015 4.506-1.176.644-4.535.322-5.543-.322.84 1.127 3.527 2.253 5.039 2.092-.504 2.253-2.015 4.828-3.359 6.598-1.512 1.931-4.03 2.575-6.046 1.931-1.008-.321-1.848-1.126-2.52-2.414.169-.482.168-.804.336-1.287.504-2.092 1.344-4.345 2.184-6.437 1.847-4.184 4.031-8.046 6.718-11.587 5.206-7.402 12.764-12.391 19.314-18.667 0 0 0-.161 0 0-3.695 3.379-7.726 6.276-11.589 9.495-3.359 2.896-6.382 5.954-8.901 9.494-2.687 3.702-4.87 7.725-6.55 11.748-1.008 2.575-2.351 5.31-3.023 8.046-1.847.805-4.199.322-5.71-.805-2.016-1.448-2.52-3.862-2.016-6.115.168-1.126.504-2.092.84-3.218.336-.805 1.008-1.77 1.008-2.736.84 0 1.847.322 2.687.483-.504-.644-1.344-1.288-2.015-1.77.503-.644 1.007-2.253 1.68-2.575.67-.483 2.182.161 2.854.322-.336-.644-1.008-1.288-1.511-1.61.335-1.931 2.015-4.184 3.359-5.632.84-1.127 2.015-2.253 2.855-3.379.84.643 1.847 1.126 2.855 1.77 1.008.804 2.183 1.77 3.527 2.253-.672-.805-1.176-1.449-1.848-2.253-1.007-1.127-1.68-2.414-2.687-3.541.504-.482.84-.965 1.344-1.448.504-.483 4.534-4.345 4.87-3.862.84.965 2.016 1.609 2.855 2.575-.168-.805-.503-1.771-.671-2.575.503.483 1.511 1.126 1.847 1.448-.168-.644-.672-2.575-1.344-2.736 1.176-.161 2.184-.804 3.191-1.448 1.008-.483 2.016-.966 3.024-1.287.671-.161 1.511-.322 2.183-.644.168.644 1.511.965 1.847 1.287 0-.643-.168-1.448-.336-1.931 2.856-.965 5.711-1.287 7.894-3.54-.168.804 0 3.218-.168 3.701z" fill="#F90"/><path d="M123.107 327.485c-6.55 6.276-13.94 11.265-19.314 18.667-2.688 3.702-4.871 7.564-6.718 11.587-.84 2.092-1.512 4.184-2.184 6.437-.168.483-.168.805-.336 1.288 0-.161-.168-.161-.168-.322-.335.482-.84.965-1.511 1.126.672-2.736 2.015-5.632 3.023-8.046 1.847-4.184 3.863-8.207 6.55-11.748a48.744 48.744 0 018.901-9.494c4.031-3.219 8.062-6.116 11.757-9.495z" fill="#11477C"/><path d="M91.196 389.924c0 .805-2.519.644-2.519-.161-.168-1.448 4.03-21.886 4.367-23.334.504-.322 1.008-.644 1.511-1.126 0 .161.168.161.168.321-.504 1.61-3.527 22.53-3.527 24.3z" fill="#11477C"/><path d="M34.766 336.819c.336.965.84 1.931 1.343 2.896.504.966 1.176 1.771 1.848 2.575.503.483 1.175 1.127 1.343 1.77.672 0 1.512-.161 2.184-.322-.672.644-1.008.805-.504 1.449 1.175 1.448 2.519 2.736 3.695 4.184.503.644 1.175 1.287 1.511 2.092.336.644.336 1.609 1.008 1.931.672.483 2.855-.966 3.695-1.126-.504.643-1.344 1.931-2.184 2.092.504.161 1.344 0 1.848 0-.504.321-1.176.643-1.68 1.126.336.483.336 1.127.672 1.77.336.644.504 1.449.84 2.092.504.966 1.008 3.38 2.015 3.863 1.008.482 4.031.16 4.87-.644-.671 1.126-3.022 2.253-4.366 2.092.504 1.931 2.015 4.184 3.359 5.632 1.512 1.61 3.695 2.092 5.374 1.449.84-.322 1.68-1.127 2.184-2.253-.168-.322-.168-.805-.336-1.127a77.714 77.714 0 00-2.184-5.632c-1.847-3.541-4.03-6.92-6.55-9.978-5.038-6.276-11.924-10.46-17.97-15.77 0 0 0-.161 0 0 3.359 2.735 7.222 5.149 10.749 7.885a48.698 48.698 0 018.397 8.046c2.52 3.219 4.703 6.598 6.382 10.139 1.176 2.253 2.351 4.666 3.023 7.08 1.68.644 3.695.161 5.039-.965 1.847-1.449 2.015-3.541 1.511-5.633-.168-.965-.672-1.931-.84-2.735-.335-.805-1.007-1.61-1.007-2.414-.84 0-1.512.322-2.352.483.336-.644 1.008-1.127 1.68-1.61-.504-.483-1.008-1.931-1.511-2.253-.504-.322-1.848.322-2.52.483.336-.644.84-1.126 1.344-1.609-.336-1.77-2.016-3.541-3.191-4.989-.84-.965-2.016-1.931-2.687-2.897-.672.644-1.68 1.127-2.352 1.771-1.007.804-1.847 1.77-3.023 2.253.504-.644 1.008-1.449 1.512-2.092.84-.966 1.343-2.253 2.183-3.219-.504-.322-.84-.805-1.175-1.287-.504-.322-4.2-3.702-4.535-3.219-.672.805-1.68 1.609-2.351 2.414.167-.644.335-1.609.503-2.253-.335.483-1.175.966-1.679 1.448.168-.643.336-2.253 1.008-2.574-1.008-.161-2.016-.644-2.856-1.127-.84-.483-1.847-.644-2.687-.966-.671-.16-1.343-.16-2.015-.482-.168.483-1.176.965-1.68 1.287-.168-.483 0-1.287.168-1.77-2.519-.805-5.038-.966-7.221-2.736 0 .805 0 2.897.168 3.38z" fill="#F90"/><path d="M36.613 337.14c6.046 5.15 12.932 9.495 17.97 15.771 2.52 3.058 4.703 6.437 6.55 9.978.84 1.77 1.68 3.701 2.184 5.632.168.322.336.805.336 1.127 0-.161.168-.161.168-.322.336.482.84.804 1.343.965-.671-2.414-2.015-4.827-3.023-7.08-1.847-3.541-3.863-7.081-6.382-10.139a48.701 48.701 0 00-8.397-8.046c-3.527-2.736-7.222-5.15-10.75-7.886 0 0-.167 0 0 0z" fill="#11477C"/><path d="M67.852 391.051c0 .644 2.183.322 2.35-.322 0-1.287-4.702-19.15-5.038-20.438-.504-.161-1.007-.482-1.343-.965 0 .161 0 .161-.168.322.504 1.609 4.199 19.954 4.199 21.403z" fill="#11477C"/><path d="M642.909 181.042v32.99c0 4.184 3.527 7.563 7.894 7.563h10.413v9.817l10.245-9.817h33.925c4.367 0 7.894-3.379 7.894-7.563v-32.99c0-4.184-3.527-7.563-7.894-7.563h-54.583c-4.199-.161-7.894 3.379-7.894 7.563zm49.545 16.575c0-2.092 1.848-3.862 4.031-3.862s4.031 1.77 4.031 3.862-1.848 3.863-4.031 3.863c-2.183-.161-4.031-1.771-4.031-3.863zm-18.138 0c0-2.092 1.847-3.862 4.031-3.862 2.183 0 4.03 1.77 4.03 3.862s-1.847 3.863-4.03 3.863c-2.352-.161-4.031-1.771-4.031-3.863zm-18.139 0c0-2.092 1.848-3.862 4.031-3.862s4.031 1.77 4.031 3.862-1.848 3.863-4.031 3.863c-2.351-.161-4.031-1.771-4.031-3.863z" fill="url(#paint4_linear)"/><path d="M236.304 18.185l-15.283 14.644m15.283 0l-15.283-14.644" stroke="#C3D3DD" stroke-width="3" stroke-miterlimit="10" stroke-linecap="round"/><path d="M58.782 211.457v13.035m6.718-6.598H51.896M517.955 50.048v13.035m6.886-6.437h-13.772m147.46 49.243c0 2.736-2.352 4.989-5.207 4.989s-5.206-2.253-5.206-4.989c0-2.735 2.351-4.988 5.206-4.988 2.855 0 5.207 2.092 5.207 4.988z" stroke="#C3D3DD" stroke-width="1.662" stroke-miterlimit="10" stroke-linecap="round"/><path d="M161.735 68.716c0 2.735-2.351 4.988-5.206 4.988-2.855 0-5.207-2.253-5.207-4.988 0-2.736 2.352-4.99 5.207-4.99 2.687 0 5.206 2.254 5.206 4.99z" stroke="#C3D3DD" stroke-width="2" stroke-miterlimit="10" stroke-linecap="round"/><path d="M452.455 29.932H408.62c-1.343-5.954-6.886-10.46-13.436-10.46h-11.42c0-.322.168-.483.168-.805C383.932 8.369 375.198 0 364.45 0h-3.863c-10.749 0-19.482 8.368-19.482 18.668 0 .321 0 .643.168.804h-24.185c-6.55 0-12.092 4.506-13.436 10.46h-10.917c-6.55 0-11.924 5.15-11.924 11.426s5.374 11.426 11.924 11.426h160.056c6.55 0 11.924-5.15 11.924-11.426-.335-6.276-5.71-11.426-12.26-11.426zm179.706 21.564h-16.795c-.504-2.253-2.688-4.023-5.207-4.023h-4.366v-.322c0-3.862-3.359-7.08-7.39-7.08h-1.512c-4.031 0-7.39 3.218-7.39 7.08v.322h-9.237c-2.519 0-4.702 1.77-5.206 4.023h-4.199c-2.519 0-4.535 1.931-4.535 4.345 0 2.414 2.016 4.345 4.535 4.345h61.302c2.519 0 4.534-1.93 4.534-4.345 0-2.413-2.015-4.345-4.534-4.345z" fill="#F0F5F7"/><path d="M100.602 376.567l-.672 10.3-.84 15.931-1.511 26.392H60.462l-1.512-26.392-1.008-15.931-.503-10.3h43.163z" fill="#95A8B5"/><path d="M99.93 386.867v2.092l-.168 2.092-.672 11.747H58.95l-.672-11.747-.167-2.092-.168-2.092H99.93z" fill="#A5B7C6"/><path d="M309.026 96.717a3.39 3.39 0 00-2.351.965c-.672.644-1.008 1.449-1.008 2.253 0 .805.336 1.609 1.008 2.253a3.388 3.388 0 002.351.966c.84 0 1.68-.322 2.352-.966.672-.644 1.007-1.448 1.007-2.253 0-.804-.335-1.61-1.007-2.253a3.39 3.39 0 00-2.352-.965zm17.299 0c-1.847 0-3.359 1.448-3.359 3.218s1.512 3.219 3.359 3.219c1.848 0 3.359-1.449 3.359-3.219 0-1.77-1.511-3.218-3.359-3.218zm-17.299-16.415a3.39 3.39 0 00-2.351.966c-.672.644-1.008 1.448-1.008 2.253 0 .804.336 1.609 1.008 2.253a3.39 3.39 0 002.351.965c.84 0 1.68-.322 2.352-.965.672-.644 1.007-1.449 1.007-2.253 0-.805-.335-1.61-1.007-2.253a3.39 3.39 0 00-2.352-.966zm17.299 6.437c1.848 0 3.359-1.448 3.359-3.218s-1.511-3.219-3.359-3.219c-1.847 0-3.359 1.449-3.359 3.219 0 1.77 1.512 3.218 3.359 3.218zm297.438 63.888c0-.805-.336-1.609-1.008-2.253a3.385 3.385 0 00-2.351-.966c-.84 0-1.679.322-2.351.966-.672.644-1.008 1.448-1.008 2.253 0 .805.336 1.609 1.008 2.253a3.386 3.386 0 002.351.965c.84 0 1.68-.321 2.351-.965.672-.644 1.008-1.448 1.008-2.253zm0-44.738c0-1.77-1.511-3.218-3.359-3.218-1.847 0-3.359 1.448-3.359 3.218 0 1.771 1.512 3.219 3.359 3.219 1.848 0 3.359-1.448 3.359-3.219zm0 22.369c0-1.77-1.511-3.218-3.359-3.218-1.847 0-3.359 1.448-3.359 3.218s1.512 3.219 3.359 3.219c1.848 0 3.359-1.449 3.359-3.219zm0-44.738c0-.804-.336-1.608-1.008-2.252a3.386 3.386 0 00-2.351-.966c-.84 0-1.679.322-2.351.966-.672.644-1.008 1.448-1.008 2.253 0 .804.336 1.609 1.008 2.253a3.388 3.388 0 002.351.965c.84 0 1.68-.322 2.351-.965.672-.644 1.008-1.449 1.008-2.253z" fill="#C3D3DD"/><defs><linearGradient id="paint0_linear" x1="296.704" y1="180.061" x2="523.985" y2="466.364" gradientUnits="userSpaceOnUse"><stop stop-color="#4176F1"/><stop offset="1" stop-color="#135BA2"/></linearGradient><linearGradient id="paint1_linear" x1="358.248" y1="275.29" x2="358.248" y2="328.772" gradientUnits="userSpaceOnUse"><stop stop-color="#49A0BF"/><stop offset="1" stop-color="#2672B2"/></linearGradient><linearGradient id="paint2_linear" x1="586.627" y1="275.29" x2="586.627" y2="328.772" gradientUnits="userSpaceOnUse"><stop stop-color="#49A0BF"/><stop offset="1" stop-color="#2672B2"/></linearGradient><linearGradient id="paint3_linear" x1="527.541" y1="348.085" x2="527.541" y2="401.566" gradientUnits="userSpaceOnUse"><stop stop-color="#49A0BF"/><stop offset="1" stop-color="#2672B2"/></linearGradient><linearGradient id="paint4_linear" x1="659.975" y1="167.199" x2="694.256" y2="229.167" gradientUnits="userSpaceOnUse"><stop stop-color="#49A0BF"/><stop offset="1" stop-color="#2672B2"/></linearGradient></defs></svg>