<svg width="105" height="35" fill="none" xmlns="http://www.w3.org/2000/svg"><path d="M7.967 27H.443V1.107h10.125l3.586 12.92c.047.176.14.58.281 1.213.141.621.34 1.483.598 2.584.164-.867.317-1.623.457-2.267.14-.657.264-1.149.37-1.477l3.673-12.973h10.108V27h-7.524l.07-12.744v-2.25l.036-2.285a115.287 115.287 0 01-1.02 4.377l-.053.228L17.951 27h-5.8L8.915 14.607a34.74 34.74 0 01-.457-1.933c-.152-.727-.352-1.711-.598-2.953.035 1.113.059 2.068.07 2.865.024.797.036 1.435.036 1.916V27zm26.473 7.523v-5.66h2.162c.738 0 1.271-.129 1.6-.386.327-.247.491-.657.491-1.23a3.71 3.71 0 00-.105-.827 6.898 6.898 0 00-.299-1.037l-6.398-17.49h7.699l3.34 11.584 3.252-11.584h7.154l-6.188 19.002c-.703 2.132-1.248 3.591-1.634 4.377-.375.796-.78 1.4-1.213 1.81a4.752 4.752 0 01-2.074 1.213c-.809.246-2.121.37-3.938.37-.527 0-1.12-.013-1.775-.036a72.194 72.194 0 01-2.075-.106zM55.463 5.941V.475h7.664V5.94h-7.664zm0 21.059V7.893h7.664V27h-7.664zm34.348 2.813l-3.358-3.498c-.844.456-1.81.802-2.9 1.037-1.09.246-2.274.369-3.551.369-4.008 0-7.225-1.23-9.65-3.692-2.415-2.46-3.621-5.73-3.621-9.808 0-4.266 1.2-7.63 3.603-10.09C72.748 1.67 76.035.439 80.195.439c4.149 0 7.424 1.22 9.827 3.657 2.402 2.437 3.603 5.765 3.603 9.984 0 1.723-.252 3.334-.756 4.834a14.398 14.398 0 01-2.232 4.201l2.988 3.059-3.814 3.639zm-8.069-8.543l-3.199-3.305 3.55-3.428 2.954 3.094c.129-.527.228-1.06.299-1.6.07-.539.105-1.06.105-1.564 0-2.766-.416-4.758-1.248-5.977-.82-1.219-2.156-1.828-4.008-1.828-1.816 0-3.152.598-4.007 1.793-.856 1.195-1.284 3.07-1.284 5.625 0 2.566.428 4.447 1.284 5.643.855 1.183 2.203 1.775 4.043 1.775.269 0 .527-.018.773-.053a3.75 3.75 0 00.738-.175zM97.228 5.94V.475h7.665V5.94h-7.665zm0 21.059V7.893h7.665V27h-7.665z" fill="#4277F4"/></svg>