<svg width="599" height="599" fill="none" xmlns="http://www.w3.org/2000/svg"><path d="M322.741 52.113s-2.755-8.027-11.021-8.146c-8.267-.24-5.272 4.911-14.017 4.073-8.745-.839-5.511-10.662-19.168-12.699-13.657-2.037-19.408 16.772-19.408 16.772h63.614zm245.47 80.625s-2.515-7.188-9.943-7.307c-7.428-.24-4.792 4.432-12.579 3.713-7.787-.718-4.912-9.464-17.131-11.381-12.22-1.797-17.371 14.975-17.371 14.975h57.024z" fill="#fff"/><path d="M279.613 553.236H449.49c18.808 0 34.143-15.214 34.143-34.143V120.639c0-18.809-15.215-34.143-34.143-34.143H279.613c-18.808 0-34.143 15.214-34.143 34.143v398.454c.12 18.929 15.335 34.143 34.143 34.143z" fill="#E5EDFD"/><path d="M279.613 98.236c-12.339 0-22.402 10.063-22.402 22.403v398.454c0 12.34 10.063 22.403 22.402 22.403H449.49c12.339 0 22.402-10.063 22.402-22.403V120.639c0-12.34-10.063-22.403-22.402-22.403H279.613zm0-11.74H449.49c18.808 0 34.143 15.214 34.143 34.143v398.454c0 18.809-15.215 34.143-34.143 34.143H279.613c-18.808 0-34.143-15.214-34.143-34.143V120.639c.12-18.809 15.335-34.143 34.143-34.143z" fill="#060000"/><path d="M311.48 87.694h106.263v12.339a9.919 9.919 0 01-9.944 9.943h-86.495a9.919 9.919 0 01-9.944-9.943v-12.34h.12z" fill="#060000"/><path d="M384.318 97.038h-40.732" stroke="#fff" stroke-width=".764" stroke-miterlimit="10" stroke-linecap="round" stroke-linejoin="round"/><path d="M322.142 501.962H443.5a9.408 9.408 0 009.464-9.464V391.147a9.408 9.408 0 00-9.464-9.464H322.142a9.408 9.408 0 00-9.464 9.464v101.351a9.408 9.408 0 009.464 9.464z" fill="#9BBDF9"/><path d="M401.689 433.916h27.914c2.036 0 3.833-1.678 3.833-3.834v-27.913c0-2.037-1.677-3.834-3.833-3.834h-27.914c-2.036 0-3.833 1.677-3.833 3.834v27.913c.12 2.156 1.797 3.834 3.833 3.834z" fill="#fff"/><path d="M385.876 409.596h-32.107m32.107 11.381h-51.754" stroke="#000" stroke-width="1.3" stroke-miterlimit="10" stroke-linecap="round" stroke-linejoin="round"/><path d="M433.317 448.651h-35.341m35.341 11.74h-99.195m99.195 13.059h-99.195" stroke="#fff" stroke-width="1.3" stroke-miterlimit="10" stroke-linecap="round" stroke-linejoin="round"/><path d="M505.632 208.554c-3.64-15.253 5.774-30.568 21.027-34.208 15.253-3.639 30.568 5.775 34.208 21.028 3.639 15.253-5.775 30.568-21.028 34.207-15.253 3.64-30.568-5.774-34.207-21.027z" fill="#F90"/><path d="M544.731 203.301l-8.985 6.708-15.215-15.933" stroke="#fff" stroke-width="2.136" stroke-miterlimit="10" stroke-linecap="round" stroke-linejoin="round"/><path d="M422.175 356.046h95.241a6.188 6.188 0 006.23-6.23v-66.369a6.188 6.188 0 00-6.23-6.23h-95.241a6.187 6.187 0 00-6.229 6.23v66.369c0 3.474 2.875 6.23 6.229 6.23z" fill="#4479FA"/><path d="M453.203 310.282c0-9.344 7.668-17.011 17.012-17.011 9.344 0 17.012 7.667 17.012 17.011 0 3.115-.839 6.11-2.396 8.626v.119a14.066 14.066 0 01-2.277 2.995l-12.339 16.293-12.339-16.293c-.839-.958-1.678-1.916-2.277-3.114-1.557-2.516-2.396-5.511-2.396-8.626zm17.012 7.428c4.073 0 7.428-3.355 7.428-7.428s-3.355-7.427-7.428-7.427-7.428 3.354-7.428 7.427c-.119 4.073 3.235 7.428 7.428 7.428zm-187.727-51.994h164.126a9.408 9.408 0 009.465-9.464V154.901a9.408 9.408 0 00-9.465-9.464H282.488a9.408 9.408 0 00-9.464 9.464v101.351c0 5.152 4.313 9.464 9.464 9.464z" fill="#fff"/><path d="M413.31 205.098h24.439c1.797 0 3.355-1.438 3.355-3.355v-24.439a3.349 3.349 0 00-3.355-3.354H413.31a3.348 3.348 0 00-3.354 3.354v24.439c.119 1.917 1.557 3.355 3.354 3.355zm-39.534 0h24.439c1.797 0 3.355-1.438 3.355-3.355v-24.439a3.349 3.349 0 00-3.355-3.354h-24.439a3.348 3.348 0 00-3.354 3.354v24.439a3.349 3.349 0 003.354 3.355zm-39.654 0h24.439c1.797 0 3.355-1.438 3.355-3.355v-24.439a3.349 3.349 0 00-3.355-3.354h-24.439a3.348 3.348 0 00-3.354 3.354v24.439c.12 1.917 1.557 3.355 3.354 3.355z" fill="#9BBDF9"/><path d="M294.588 205.098h24.439c1.797 0 3.355-1.438 3.355-3.355v-24.439a3.349 3.349 0 00-3.355-3.354h-24.439a3.348 3.348 0 00-3.354 3.354v24.439a3.349 3.349 0 003.354 3.355z" fill="#F90"/><path d="M413.31 247.028h24.439c1.797 0 3.355-1.438 3.355-3.355v-24.439a3.349 3.349 0 00-3.355-3.354H413.31a3.348 3.348 0 00-3.354 3.354v24.439c.119 1.917 1.557 3.355 3.354 3.355zm-39.534 0h24.439c1.797 0 3.355-1.438 3.355-3.355v-24.439a3.349 3.349 0 00-3.355-3.354h-24.439a3.348 3.348 0 00-3.354 3.354v24.439a3.349 3.349 0 003.354 3.355zm-39.654 0h24.439c1.797 0 3.355-1.438 3.355-3.355v-24.439a3.349 3.349 0 00-3.355-3.354h-24.439a3.348 3.348 0 00-3.354 3.354v24.439c.12 1.917 1.557 3.355 3.354 3.355zm-39.534 0h24.439c1.797 0 3.355-1.438 3.355-3.355v-24.439a3.349 3.349 0 00-3.355-3.354h-24.439a3.348 3.348 0 00-3.354 3.354v24.439a3.349 3.349 0 003.354 3.355z" fill="#9BBDF9"/><path d="M279.254 356.046h107.341a6.187 6.187 0 006.229-6.23v-66.369a6.187 6.187 0 00-6.229-6.23H279.254a6.188 6.188 0 00-6.23 6.23v66.369a6.188 6.188 0 006.23 6.23z" fill="#fff"/><path d="M289.317 304.172h85.178a3.348 3.348 0 003.354-3.354v-11.261c0-1.797-1.437-3.355-3.354-3.355h-85.178a3.349 3.349 0 00-3.354 3.355v11.261c0 1.797 1.557 3.354 3.354 3.354z" fill="#9BBDF9"/><path d="M376.531 315.913h-41.81m41.81 10.183h-89.37m89.37 11.141h-89.37" stroke="#000" stroke-width="1.3" stroke-miterlimit="10" stroke-linecap="round" stroke-linejoin="round"/><path d="M221.63 476.325h62.296a7.516 7.516 0 007.547-7.548v-54.029a7.516 7.516 0 00-7.547-7.548H221.63a7.516 7.516 0 00-7.547 7.548v54.029a7.516 7.516 0 007.547 7.548z" fill="#F90"/><path d="M237.444 438.708l2.515-.48c.24-1.078.719-2.156 1.318-3.114l-1.437-2.157c-.599-.719-.48-1.797.239-2.516l1.558-1.557c.718-.599 1.677-.719 2.515-.12l2.157 1.438c.958-.599 2.036-.959 3.115-1.318l.479-2.636c.12-.958.958-1.557 1.917-1.677h2.156c.958 0 1.797.719 1.917 1.677l.479 2.516c1.078.24 2.156.719 3.115 1.318l2.156-1.438c.719-.599 1.797-.479 2.516.24l1.557 1.557c.719.719.719 1.678.24 2.516l-1.438 2.157c.599.958.959 2.036 1.318 3.114l2.516.48c.958.119 1.677.958 1.677 1.916v2.157c0 .958-.719 1.797-1.677 1.917l-2.516.479c-.239 1.078-.719 2.156-1.318 3.115l1.438 2.156c.599.719.479 1.797-.24 2.516l-1.557 1.557c-.719.719-1.677.719-2.516.24l-2.156-1.438c-.959.599-2.037.959-3.115 1.318l-.479 2.516c-.12.958-.959 1.677-1.917 1.677h-2.156c-.959 0-1.797-.719-1.917-1.677l-.479-2.516c-1.079-.24-2.157-.719-3.115-1.318l-2.037 1.438c-.719.599-1.797.479-2.516-.24l-1.557-1.557c-.719-.719-.719-1.677-.24-2.516l1.438-2.156c-.599-.959-.958-2.037-1.318-3.115l-2.516-.479c-.958-.12-1.677-.959-1.677-1.917v-2.157c0-.838.599-1.677 1.558-1.916zm15.334 9.823a6.698 6.698 0 006.709-6.709 6.698 6.698 0 00-6.709-6.708 6.698 6.698 0 00-6.709 6.708 6.698 6.698 0 006.709 6.709z" fill="#fff"/><path d="M550.601 553.236H59.541" stroke="#000" stroke-width=".75" stroke-miterlimit="10"/><path d="M149.151 109.497h-48.279c-11.98 0-21.564-9.704-21.564-21.564 0-11.98 9.703-21.564 21.564-21.564h48.279c11.98 0 21.564 9.704 21.564 21.564.12 11.86-9.584 21.564-21.564 21.564z" fill="#9BBDF9"/><path d="M132.139 104.705l15.694 15.335 2.875-16.533-18.569 1.198z" fill="#9BBDF9"/><path d="M132.259 80.985c2.276-2.157 5.87-2.157 8.027.12l1.437 1.437 1.438-1.438c2.276-2.156 5.87-2.156 8.027.12 2.156 2.276 2.156 5.87-.12 8.027l-5.511 5.51c-.839.84-2.037 1.438-3.115 1.558-1.797.24-3.594-.24-4.912-1.677l-5.51-5.63c-2.037-2.277-2.037-5.87.239-8.027z" fill="#fff"/><path d="M121.357 82.901H99.194m22.163 6.11h-11.74" stroke="#fff" stroke-width="1.019" stroke-miterlimit="10" stroke-linecap="round" stroke-linejoin="round"/><path d="M194.316 538.381l14.256 7.787c1.557.839 2.396 2.756 1.917 4.553-.36 1.437-1.558 2.515-4.792 2.515-7.069.12-38.097-5.031-38.097-5.031v4.432l-14.496.12s-.958-21.085 3.475-23.84l37.737 9.464z" fill="#200902"/><path d="M175.267 522.807l19.049 15.574s-2.396 7.068-13.298 2.396c-10.902-4.672-24.439-11.74-24.439-11.74l2.036-8.147 16.652 1.917z" fill="#ECC696"/><path d="M158.615 520.771l-2.036-56.426 18.808-1.438v66.01l-16.772-8.146z" fill="#ECC696"/><path d="M192.159 295.067l-7.907 219.594h-36.539l-1.916-237.324 46.362 17.73z" fill="#3A2222"/><path d="M188.086 291.234l-18.449 106.981c-2.276 13.178-15.814 21.205-28.393 16.892-9.344-3.235-15.334-12.22-14.615-22.043l3.474-48.639c1.797-16.532-2.276-37.857 15.694-67.088l42.289 13.897z" fill="#523332"/><path d="M91.288 532.87l7.906 14.137c.839 1.557.6 3.594-.718 4.911-1.079.959-2.636 1.318-5.391-.359-5.99-3.594-29.591-24.439-29.591-24.439l-2.396 3.833-12.34-7.667s10.423-18.449 15.575-18.329l26.955 27.913z" fill="#200902"/><path d="M83.38 509.629l7.908 23.241s-5.75 4.672-12.46-5.031c-6.708-9.704-14.495-22.882-14.495-22.882l5.99-5.87 13.058 10.542z" fill="#ECC696"/><path d="M70.323 499.087l28.153-48.879 16.891 8.746L80.266 514.9l-9.943-15.813z" fill="#ECC696"/><path d="M166.881 405.643l-68.046 101.47-31.627-20.366 65.77-110.336 33.903 29.232z" fill="#523332"/><path d="M217.677 117.404s15.094-1.917 17.131 12.339c1.438 10.663-3.474 15.934.359 24.44 3.834 8.505-3.354 16.173-3.354 16.173s-17.85 8.266-37.378-8.746l23.242-44.206z" fill="#DC761C"/><path d="M211.806 165.204l-8.266 21.324-17.131-4.552 15.813-30.669 9.584 13.897z" fill="#ECC696"/><path d="M207.853 175.387l-3.474-15.574 6.349 8.147-2.875 7.427z" fill="#000"/><path d="M219.593 120.638s10.183 2.157 10.183 15.095c0 0 .48 4.912-.119 18.449-.48 9.584-4.912 16.173-13.897 15.215-4.313-.479-8.865-3.115-12.939-6.469l-5.75-5.87c-13.178-16.054.599-40.373 21.085-36.659.359 0 .838.12 1.437.239z" fill="#ECC696"/><path d="M228.938 146.515l3.594 6.35c.479.718.239 1.677-.719 1.797l-4.672.599 1.797-8.746z" fill="#ECC696"/><path d="M204.858 142.801c-.359-2.875-2.396-23.241 12.938-20.605 2.396.359 3.594-2.756 1.558-3.954-5.391-3.354-14.137-5.75-26.596-.958-5.031 1.917-12.1 8.626-12.1 15.215 0 14.136 4.673 21.324 12.939 28.512.479.359 1.078.24 1.318-.24l5.391-10.302v-.12c.599-1.917 3.594-5.751 4.432-6.829.12-.239.12-.479.12-.719z" fill="#DC761C"/><path d="M215.041 117.164c19.168 8.866-8.865 29.831-8.865 29.831l-7.907-15.574c0 .119 13.537-15.694 16.772-14.257z" fill="#DC761C"/><path d="M227.74 134.775l-10.183 3.474s1.797-3.235 5.391-5.032c4.912-2.396 4.792 1.558 4.792 1.558z" fill="#000"/><path d="M225.703 141.723s-3.354.719-3.474 4.193c-.12 3.355 3.594 3.115 3.594 3.115s3.115-4.193-.12-7.308z" fill="#fff"/><path d="M224.984 140.765s-2.635 4.912.719 8.146c3.355 3.235 0 0 0 0l1.917-.239.12-5.391-2.756-2.516z" fill="#000"/><path d="M226.422 140.765c-.599 0-1.078.239-1.677.359-.479.24-.959.479-1.438.839a5.292 5.292 0 00-.958 1.318c-.24.479-.36.958-.479 1.437 0 .12 0 .24.119.24.12 0 .24 0 .24-.12.12-.479.359-.839.599-1.318.24-.359.599-.719.958-.958.36-.24.839-.479 1.198-.479.48-.12.959-.12 1.318-.12.36 0 .719-.24.719-.599.12-.24-.12-.479-.599-.599.12 0 .12 0 0 0z" fill="#000"/><path d="M228.938 157.058c1.198.239 1.318 1.557.239 2.036 0 0 1.438 1.438-.718 2.037-2.277.479-4.313-3.355-4.313-3.355 2.635.599 3.234-.958 4.792-.718z" fill="#C7181B"/><path d="M203.42 151.427c-1.198 8.506-.239 17.97-.239 17.97s-24.2 7.787-35.221-19.767c0 0 7.068-2.755 9.224-8.745 2.157-5.99 0-27.075 28.273-26.356 0 0-.719 27.314-2.037 36.898z" fill="#DC761C"/><path d="M194.196 146.875c-.479 3.594 2.036 6.828 5.63 7.307 3.594.48 6.829-2.036 7.308-5.63.479-3.594-2.036-6.829-5.63-7.308-3.714-.479-6.949 2.037-7.308 5.631z" fill="#ECC696"/><path d="M203.42 150.469s-.239-4.912-4.312-5.032" stroke="#000" stroke-width=".511" stroke-miterlimit="10" stroke-linecap="round" stroke-linejoin="round"/><path d="M161.371 198.389l-40.133 32.465c-5.751 4.912-6.23 13.658-.959 19.049 4.792 5.031 12.579 5.391 17.85.958l43.488-34.502-20.246-17.97z" fill="#ECC696"/><path d="M137.291 210.249s1.677 12.938 24.199 27.794l30.669-22.762c8.506-6.35 9.824-18.689 2.756-26.596-5.871-6.589-15.694-8.027-23.122-3.235l-34.502 24.799z" fill="#467AC9"/><path d="M138.01 251.34l-39.774 51.155-9.704-11.381 29.711-56.785c4.792-6.469 14.376-7.188 20.006-1.318 4.912 5.151 4.792 13.298-.239 18.329z" fill="#ECC696"/><path d="M100.512 300.339l.36 2.515c.599 3.475.239 6.949-.719 10.303l-1.917 5.87c-.48 1.438-2.037 2.037-3.354 1.318-1.079-.599-1.678-1.677-1.678-2.995l.6-6.469-12.939 18.329c-.599.959-1.917 1.079-2.755.36l-.6-.479c-.598-.599-.838-1.558-.359-2.277l8.266-12.579-11.5 13.178c-.72.839-1.917.959-2.756.24l-.36-.359c-.598-.599-.718-1.678-.119-2.396l9.464-12.22-9.224 7.667c-.839.719-2.277.599-2.756-.479l-.12-.24a2.011 2.011 0 01.24-2.156l9.105-8.745-5.63 3.354c-1.079.839-2.636.359-2.876-.958-.12-.599 0-1.318.48-1.678l23.12-21.564 4.673 5.391a12.997 12.997 0 013.354 7.069z" fill="#ECC696"/><path d="M191.92 181.377s15.813-1.557 15.933 26.955c.24 28.513-8.745 42.05-15.814 86.735 0 0-26.715-3.234-46.362-17.73.12 0-1.078-104.945 46.243-95.96z" fill="#4479FA"/><path d="M195.154 219.474l37.258 35.7c5.631 5.032 14.256 4.433 19.048-1.438 4.313-5.391 3.834-13.178-1.318-17.85l-39.653-38.815-15.335 22.403z" fill="#ECC696"/><path d="M205.337 242.116s13.058-.479 26.356-26.955l-26.236-27.794c-7.308-7.787-19.767-7.547-26.715.479-5.871 6.589-6.11 16.533-.48 23.361l27.075 30.909z" fill="#4479FA"/><path d="M201.743 238.043l-17.97-20.486" stroke="#000" stroke-width=".511" stroke-miterlimit="10" stroke-linecap="round" stroke-linejoin="round"/><path d="M233.131 236.245l53.071-40.252 6.949 10.901-41.93 47.082a12.775 12.775 0 01-19.528-.12c-4.432-5.151-3.833-13.058 1.438-17.611z" fill="#ECC696"/><path d="M279.134 207.134c2.037 6.709 8.506 6.469 21.324 2.875 6.709-1.917 9.225-6.709 7.188-13.417-2.036-6.709-9.104-10.543-15.813-8.506-6.709 1.917-14.616 12.339-12.699 19.048z" fill="#ECC696"/><path d="M289.557 188.925l16.173-9.465c1.078-.718 2.515-.479 3.354.599.599.839.479 2.037-.359 2.876l-12.579 10.662-6.589-4.672z" fill="#ECC696"/></svg>